<mxfile host="Electron" modified="2024-04-22T23:34:04.236Z" agent="Mozilla/5.0 (Windows NT 10.0; Win64; x64) AppleWebKit/537.36 (KHTML, like Gecko) draw.io/24.2.5 Chrome/120.0.6099.109 Electron/28.1.0 Safari/537.36" etag="Ypsf6zdMurZzmC1NGc02" version="24.2.5" type="device">
  <diagram id="C5RBs43oDa-KdzZeNtuy" name="Page-1">
    <mxGraphModel dx="2049" dy="25" grid="1" gridSize="10" guides="1" tooltips="1" connect="1" arrows="1" fold="1" page="1" pageScale="1" pageWidth="827" pageHeight="1169" math="0" shadow="0">
      <root>
        <mxCell id="WIyWlLk6GJQsqaUBKTNV-0" />
        <mxCell id="WIyWlLk6GJQsqaUBKTNV-1" parent="WIyWlLk6GJQsqaUBKTNV-0" />
        <mxCell id="WNZ_oDKXE3f1ub5YSQuA-84" value="" style="group" vertex="1" connectable="0" parent="WIyWlLk6GJQsqaUBKTNV-1">
          <mxGeometry x="10" y="1170" width="810" height="1168" as="geometry" />
        </mxCell>
        <mxCell id="WNZ_oDKXE3f1ub5YSQuA-0" value="" style="edgeStyle=orthogonalEdgeStyle;rounded=0;orthogonalLoop=1;jettySize=auto;html=1;fontStyle=1;fontSize=13;endArrow=classic;endFill=1;targetPerimeterSpacing=0;jumpSize=6;endSize=6;startSize=6;strokeWidth=2;movable=1;resizable=1;rotatable=1;deletable=1;editable=1;locked=0;connectable=1;" edge="1" parent="WNZ_oDKXE3f1ub5YSQuA-84" source="WNZ_oDKXE3f1ub5YSQuA-1" target="WNZ_oDKXE3f1ub5YSQuA-3">
          <mxGeometry relative="1" as="geometry" />
        </mxCell>
        <mxCell id="WNZ_oDKXE3f1ub5YSQuA-1" value="Start" style="ellipse;whiteSpace=wrap;html=1;fontStyle=1;fontSize=13;fillColor=#ffcd28;strokeColor=#d79b00;gradientColor=#ffa500;movable=1;resizable=1;rotatable=1;deletable=1;editable=1;locked=0;connectable=1;" vertex="1" parent="WNZ_oDKXE3f1ub5YSQuA-84">
          <mxGeometry x="440.405117270789" width="103.62473347547977" height="39.04722106142916" as="geometry" />
        </mxCell>
        <mxCell id="WNZ_oDKXE3f1ub5YSQuA-2" value="" style="edgeStyle=orthogonalEdgeStyle;rounded=0;orthogonalLoop=1;jettySize=auto;html=1;fontStyle=1;fontSize=13;endArrow=classic;endFill=1;targetPerimeterSpacing=0;jumpSize=6;endSize=6;startSize=6;strokeWidth=2;movable=1;resizable=1;rotatable=1;deletable=1;editable=1;locked=0;connectable=1;" edge="1" parent="WNZ_oDKXE3f1ub5YSQuA-84" source="WNZ_oDKXE3f1ub5YSQuA-3" target="WNZ_oDKXE3f1ub5YSQuA-5">
          <mxGeometry relative="1" as="geometry" />
        </mxCell>
        <mxCell id="WNZ_oDKXE3f1ub5YSQuA-3" value="RunMain" style="whiteSpace=wrap;html=1;fontStyle=1;fontSize=13;fillColor=#fff2cc;gradientColor=#ffd966;strokeColor=#d6b656;movable=1;resizable=1;rotatable=1;deletable=1;editable=1;locked=0;connectable=1;" vertex="1" parent="WNZ_oDKXE3f1ub5YSQuA-84">
          <mxGeometry x="440.405117270789" y="82.975344755537" width="103.62473347547977" height="29.285415796071877" as="geometry" />
        </mxCell>
        <mxCell id="WNZ_oDKXE3f1ub5YSQuA-4" value="" style="edgeStyle=orthogonalEdgeStyle;rounded=0;orthogonalLoop=1;jettySize=auto;html=1;fontStyle=1;fontSize=13;endArrow=classic;endFill=1;targetPerimeterSpacing=0;jumpSize=6;endSize=6;startSize=6;strokeWidth=2;movable=1;resizable=1;rotatable=1;deletable=1;editable=1;locked=0;connectable=1;" edge="1" parent="WNZ_oDKXE3f1ub5YSQuA-84" source="WNZ_oDKXE3f1ub5YSQuA-5" target="WNZ_oDKXE3f1ub5YSQuA-79">
          <mxGeometry relative="1" as="geometry" />
        </mxCell>
        <mxCell id="WNZ_oDKXE3f1ub5YSQuA-5" value="Do" style="whiteSpace=wrap;html=1;fontStyle=1;fontSize=13;fillColor=#fff2cc;gradientColor=#ffd966;strokeColor=#d6b656;movable=1;resizable=1;rotatable=1;deletable=1;editable=1;locked=0;connectable=1;" vertex="1" parent="WNZ_oDKXE3f1ub5YSQuA-84">
          <mxGeometry x="440.405117270789" y="151.30798161303804" width="103.62473347547977" height="29.285415796071877" as="geometry" />
        </mxCell>
        <mxCell id="WNZ_oDKXE3f1ub5YSQuA-6" value="" style="edgeStyle=orthogonalEdgeStyle;rounded=0;orthogonalLoop=1;jettySize=auto;html=1;fontStyle=1;fontSize=13;endArrow=classic;endFill=1;targetPerimeterSpacing=0;jumpSize=6;endSize=6;startSize=6;strokeWidth=2;movable=1;resizable=1;rotatable=1;deletable=1;editable=1;locked=0;connectable=1;" edge="1" parent="WNZ_oDKXE3f1ub5YSQuA-84" source="WNZ_oDKXE3f1ub5YSQuA-10" target="WNZ_oDKXE3f1ub5YSQuA-15">
          <mxGeometry relative="1" as="geometry" />
        </mxCell>
        <mxCell id="WNZ_oDKXE3f1ub5YSQuA-7" value="False" style="edgeLabel;html=1;align=center;verticalAlign=middle;resizable=1;points=[];fontStyle=1;fontSize=13;movable=1;rotatable=1;deletable=1;editable=1;locked=0;connectable=1;" connectable="0" vertex="1" parent="WNZ_oDKXE3f1ub5YSQuA-6">
          <mxGeometry x="-0.1" y="-1" relative="1" as="geometry">
            <mxPoint as="offset" />
          </mxGeometry>
        </mxCell>
        <mxCell id="WNZ_oDKXE3f1ub5YSQuA-8" value="" style="edgeStyle=orthogonalEdgeStyle;rounded=0;orthogonalLoop=1;jettySize=auto;html=1;fontStyle=1;fontSize=13;endArrow=classic;endFill=1;targetPerimeterSpacing=0;jumpSize=6;endSize=6;startSize=6;strokeWidth=2;movable=1;resizable=1;rotatable=1;deletable=1;editable=1;locked=0;connectable=1;" edge="1" parent="WNZ_oDKXE3f1ub5YSQuA-84" source="WNZ_oDKXE3f1ub5YSQuA-10" target="WNZ_oDKXE3f1ub5YSQuA-56">
          <mxGeometry relative="1" as="geometry">
            <Array as="points">
              <mxPoint x="383.41151385927515" y="322.13957375679064" />
              <mxPoint x="383.41151385927515" y="322.13957375679064" />
            </Array>
          </mxGeometry>
        </mxCell>
        <mxCell id="WNZ_oDKXE3f1ub5YSQuA-9" value="True" style="edgeLabel;html=1;align=center;verticalAlign=middle;resizable=1;points=[];fontStyle=1;fontSize=13;movable=1;rotatable=1;deletable=1;editable=1;locked=0;connectable=1;" connectable="0" vertex="1" parent="WNZ_oDKXE3f1ub5YSQuA-8">
          <mxGeometry x="-0.2938" y="2" relative="1" as="geometry">
            <mxPoint x="-1" as="offset" />
          </mxGeometry>
        </mxCell>
        <mxCell id="WNZ_oDKXE3f1ub5YSQuA-10" value="Case1:" style="rhombus;whiteSpace=wrap;html=1;fontStyle=1;fontSize=13;fillColor=#ffff88;strokeColor=#36393d;movable=1;resizable=1;rotatable=1;deletable=1;editable=1;locked=0;connectable=1;" vertex="1" parent="WNZ_oDKXE3f1ub5YSQuA-84">
          <mxGeometry x="457.6759061833691" y="302.6159632260761" width="69.08315565031984" height="39.04722106142916" as="geometry" />
        </mxCell>
        <mxCell id="WNZ_oDKXE3f1ub5YSQuA-11" value="" style="edgeStyle=orthogonalEdgeStyle;rounded=0;orthogonalLoop=1;jettySize=auto;html=1;fontStyle=1;fontSize=13;endArrow=classic;endFill=1;targetPerimeterSpacing=0;jumpSize=6;endSize=6;startSize=6;strokeWidth=2;movable=1;resizable=1;rotatable=1;deletable=1;editable=1;locked=0;connectable=1;" edge="1" parent="WNZ_oDKXE3f1ub5YSQuA-84" source="WNZ_oDKXE3f1ub5YSQuA-15" target="WNZ_oDKXE3f1ub5YSQuA-20">
          <mxGeometry relative="1" as="geometry" />
        </mxCell>
        <mxCell id="WNZ_oDKXE3f1ub5YSQuA-12" value="False" style="edgeLabel;html=1;align=center;verticalAlign=middle;resizable=1;points=[];fontStyle=1;fontSize=13;movable=1;rotatable=1;deletable=1;editable=1;locked=0;connectable=1;" connectable="0" vertex="1" parent="WNZ_oDKXE3f1ub5YSQuA-11">
          <mxGeometry x="-0.1625" y="1" relative="1" as="geometry">
            <mxPoint as="offset" />
          </mxGeometry>
        </mxCell>
        <mxCell id="WNZ_oDKXE3f1ub5YSQuA-13" value="" style="edgeStyle=orthogonalEdgeStyle;rounded=0;orthogonalLoop=1;jettySize=auto;html=1;fontStyle=1;fontSize=13;endArrow=classic;endFill=1;targetPerimeterSpacing=0;jumpSize=6;endSize=6;startSize=6;strokeWidth=2;movable=1;resizable=1;rotatable=1;deletable=1;editable=1;locked=0;connectable=1;" edge="1" parent="WNZ_oDKXE3f1ub5YSQuA-84" source="WNZ_oDKXE3f1ub5YSQuA-15" target="WNZ_oDKXE3f1ub5YSQuA-59">
          <mxGeometry relative="1" as="geometry" />
        </mxCell>
        <mxCell id="WNZ_oDKXE3f1ub5YSQuA-14" value="True" style="edgeLabel;html=1;align=center;verticalAlign=middle;resizable=1;points=[];fontStyle=1;fontSize=13;movable=1;rotatable=1;deletable=1;editable=1;locked=0;connectable=1;" connectable="0" vertex="1" parent="WNZ_oDKXE3f1ub5YSQuA-13">
          <mxGeometry x="-0.15" y="2" relative="1" as="geometry">
            <mxPoint x="-1" as="offset" />
          </mxGeometry>
        </mxCell>
        <mxCell id="WNZ_oDKXE3f1ub5YSQuA-15" value="Case2:" style="rhombus;whiteSpace=wrap;html=1;fontStyle=1;fontSize=13;fillColor=#ffff88;strokeColor=#36393d;movable=1;resizable=1;rotatable=1;deletable=1;editable=1;locked=0;connectable=1;" vertex="1" parent="WNZ_oDKXE3f1ub5YSQuA-84">
          <mxGeometry x="457.6759061833691" y="435.864605098203" width="69.08315565031984" height="39.04722106142916" as="geometry" />
        </mxCell>
        <mxCell id="WNZ_oDKXE3f1ub5YSQuA-16" value="" style="edgeStyle=orthogonalEdgeStyle;rounded=0;orthogonalLoop=1;jettySize=auto;html=1;fontStyle=1;fontSize=13;endArrow=classic;endFill=1;targetPerimeterSpacing=0;jumpSize=6;endSize=6;startSize=6;strokeWidth=2;movable=1;resizable=1;rotatable=1;deletable=1;editable=1;locked=0;connectable=1;" edge="1" parent="WNZ_oDKXE3f1ub5YSQuA-84" source="WNZ_oDKXE3f1ub5YSQuA-20" target="WNZ_oDKXE3f1ub5YSQuA-25">
          <mxGeometry relative="1" as="geometry" />
        </mxCell>
        <mxCell id="WNZ_oDKXE3f1ub5YSQuA-17" value="False" style="edgeLabel;html=1;align=center;verticalAlign=middle;resizable=1;points=[];fontStyle=1;fontSize=13;movable=1;rotatable=1;deletable=1;editable=1;locked=0;connectable=1;" connectable="0" vertex="1" parent="WNZ_oDKXE3f1ub5YSQuA-16">
          <mxGeometry x="-0.1313" y="-3" relative="1" as="geometry">
            <mxPoint as="offset" />
          </mxGeometry>
        </mxCell>
        <mxCell id="WNZ_oDKXE3f1ub5YSQuA-18" value="" style="edgeStyle=orthogonalEdgeStyle;rounded=0;orthogonalLoop=1;jettySize=auto;html=1;fontStyle=1;fontSize=13;endArrow=classic;endFill=1;targetPerimeterSpacing=0;jumpSize=6;endSize=6;startSize=6;strokeWidth=2;movable=1;resizable=1;rotatable=1;deletable=1;editable=1;locked=0;connectable=1;" edge="1" parent="WNZ_oDKXE3f1ub5YSQuA-84" source="WNZ_oDKXE3f1ub5YSQuA-20" target="WNZ_oDKXE3f1ub5YSQuA-61">
          <mxGeometry relative="1" as="geometry" />
        </mxCell>
        <mxCell id="WNZ_oDKXE3f1ub5YSQuA-19" value="True" style="edgeLabel;html=1;align=center;verticalAlign=middle;resizable=1;points=[];fontStyle=1;fontSize=13;movable=1;rotatable=1;deletable=1;editable=1;locked=0;connectable=1;" connectable="0" vertex="1" parent="WNZ_oDKXE3f1ub5YSQuA-18">
          <mxGeometry x="-0.15" y="2" relative="1" as="geometry">
            <mxPoint x="-1" as="offset" />
          </mxGeometry>
        </mxCell>
        <mxCell id="WNZ_oDKXE3f1ub5YSQuA-20" value="Case3:" style="rhombus;whiteSpace=wrap;html=1;fontStyle=1;fontSize=13;fillColor=#ffff88;strokeColor=#36393d;movable=1;resizable=1;rotatable=1;deletable=1;editable=1;locked=0;connectable=1;" vertex="1" parent="WNZ_oDKXE3f1ub5YSQuA-84">
          <mxGeometry x="457.6759061833691" y="513.9590472210615" width="69.08315565031984" height="39.04722106142916" as="geometry" />
        </mxCell>
        <mxCell id="WNZ_oDKXE3f1ub5YSQuA-21" value="" style="edgeStyle=orthogonalEdgeStyle;rounded=0;orthogonalLoop=1;jettySize=auto;html=1;fontStyle=1;fontSize=13;endArrow=classic;endFill=1;targetPerimeterSpacing=0;jumpSize=6;endSize=6;startSize=6;strokeWidth=2;movable=1;resizable=1;rotatable=1;deletable=1;editable=1;locked=0;connectable=1;" edge="1" parent="WNZ_oDKXE3f1ub5YSQuA-84" source="WNZ_oDKXE3f1ub5YSQuA-25" target="WNZ_oDKXE3f1ub5YSQuA-30">
          <mxGeometry relative="1" as="geometry" />
        </mxCell>
        <mxCell id="WNZ_oDKXE3f1ub5YSQuA-22" value="False" style="edgeLabel;html=1;align=center;verticalAlign=middle;resizable=1;points=[];fontStyle=1;fontSize=13;movable=1;rotatable=1;deletable=1;editable=1;locked=0;connectable=1;" connectable="0" vertex="1" parent="WNZ_oDKXE3f1ub5YSQuA-21">
          <mxGeometry x="-0.1" y="-1" relative="1" as="geometry">
            <mxPoint as="offset" />
          </mxGeometry>
        </mxCell>
        <mxCell id="WNZ_oDKXE3f1ub5YSQuA-23" value="" style="edgeStyle=orthogonalEdgeStyle;rounded=0;orthogonalLoop=1;jettySize=auto;html=1;fontStyle=1;fontSize=13;endArrow=classic;endFill=1;targetPerimeterSpacing=0;jumpSize=6;endSize=6;startSize=6;strokeWidth=2;movable=1;resizable=1;rotatable=1;deletable=1;editable=1;locked=0;connectable=1;" edge="1" parent="WNZ_oDKXE3f1ub5YSQuA-84" source="WNZ_oDKXE3f1ub5YSQuA-25" target="WNZ_oDKXE3f1ub5YSQuA-62">
          <mxGeometry relative="1" as="geometry" />
        </mxCell>
        <mxCell id="WNZ_oDKXE3f1ub5YSQuA-24" value="True" style="edgeLabel;html=1;align=center;verticalAlign=middle;resizable=1;points=[];fontStyle=1;fontSize=13;movable=1;rotatable=1;deletable=1;editable=1;locked=0;connectable=1;" connectable="0" vertex="1" parent="WNZ_oDKXE3f1ub5YSQuA-23">
          <mxGeometry x="-0.0667" relative="1" as="geometry">
            <mxPoint x="-1" as="offset" />
          </mxGeometry>
        </mxCell>
        <mxCell id="WNZ_oDKXE3f1ub5YSQuA-25" value="Case4:" style="rhombus;whiteSpace=wrap;html=1;fontStyle=1;fontSize=13;fillColor=#ffff88;strokeColor=#36393d;movable=1;resizable=1;rotatable=1;deletable=1;editable=1;locked=0;connectable=1;" vertex="1" parent="WNZ_oDKXE3f1ub5YSQuA-84">
          <mxGeometry x="457.6759061833691" y="592.0534893439196" width="69.08315565031984" height="39.04722106142916" as="geometry" />
        </mxCell>
        <mxCell id="WNZ_oDKXE3f1ub5YSQuA-26" value="" style="edgeStyle=orthogonalEdgeStyle;rounded=0;orthogonalLoop=1;jettySize=auto;html=1;fontStyle=1;fontSize=13;endArrow=classic;endFill=1;targetPerimeterSpacing=0;jumpSize=6;endSize=6;startSize=6;strokeWidth=2;movable=1;resizable=1;rotatable=1;deletable=1;editable=1;locked=0;connectable=1;" edge="1" parent="WNZ_oDKXE3f1ub5YSQuA-84" source="WNZ_oDKXE3f1ub5YSQuA-30" target="WNZ_oDKXE3f1ub5YSQuA-35">
          <mxGeometry relative="1" as="geometry" />
        </mxCell>
        <mxCell id="WNZ_oDKXE3f1ub5YSQuA-27" value="False" style="edgeLabel;html=1;align=center;verticalAlign=middle;resizable=1;points=[];fontStyle=1;fontSize=13;movable=1;rotatable=1;deletable=1;editable=1;locked=0;connectable=1;" connectable="0" vertex="1" parent="WNZ_oDKXE3f1ub5YSQuA-26">
          <mxGeometry x="-0.0688" y="-1" relative="1" as="geometry">
            <mxPoint as="offset" />
          </mxGeometry>
        </mxCell>
        <mxCell id="WNZ_oDKXE3f1ub5YSQuA-28" value="" style="edgeStyle=orthogonalEdgeStyle;rounded=0;orthogonalLoop=1;jettySize=auto;html=1;fontStyle=1;fontSize=13;endArrow=classic;endFill=1;targetPerimeterSpacing=0;jumpSize=6;endSize=6;startSize=6;strokeWidth=2;movable=1;resizable=1;rotatable=1;deletable=1;editable=1;locked=0;connectable=1;" edge="1" parent="WNZ_oDKXE3f1ub5YSQuA-84" source="WNZ_oDKXE3f1ub5YSQuA-30" target="WNZ_oDKXE3f1ub5YSQuA-64">
          <mxGeometry relative="1" as="geometry" />
        </mxCell>
        <mxCell id="WNZ_oDKXE3f1ub5YSQuA-29" value="True" style="edgeLabel;html=1;align=center;verticalAlign=middle;resizable=1;points=[];fontStyle=1;fontSize=13;movable=1;rotatable=1;deletable=1;editable=1;locked=0;connectable=1;" connectable="0" vertex="1" parent="WNZ_oDKXE3f1ub5YSQuA-28">
          <mxGeometry x="-0.275" y="2" relative="1" as="geometry">
            <mxPoint x="-1" as="offset" />
          </mxGeometry>
        </mxCell>
        <mxCell id="WNZ_oDKXE3f1ub5YSQuA-30" value="Case5:" style="rhombus;whiteSpace=wrap;html=1;fontStyle=1;fontSize=13;fillColor=#ffff88;strokeColor=#36393d;movable=1;resizable=1;rotatable=1;deletable=1;editable=1;locked=0;connectable=1;" vertex="1" parent="WNZ_oDKXE3f1ub5YSQuA-84">
          <mxGeometry x="457.6759061833691" y="670.1479314667781" width="69.08315565031984" height="39.04722106142916" as="geometry" />
        </mxCell>
        <mxCell id="WNZ_oDKXE3f1ub5YSQuA-31" value="" style="edgeStyle=orthogonalEdgeStyle;rounded=0;orthogonalLoop=1;jettySize=auto;html=1;fontStyle=1;fontSize=13;endArrow=classic;endFill=1;targetPerimeterSpacing=0;jumpSize=6;endSize=6;startSize=6;strokeWidth=2;movable=1;resizable=1;rotatable=1;deletable=1;editable=1;locked=0;connectable=1;" edge="1" parent="WNZ_oDKXE3f1ub5YSQuA-84" source="WNZ_oDKXE3f1ub5YSQuA-35" target="WNZ_oDKXE3f1ub5YSQuA-40">
          <mxGeometry relative="1" as="geometry" />
        </mxCell>
        <mxCell id="WNZ_oDKXE3f1ub5YSQuA-32" value="False" style="edgeLabel;html=1;align=center;verticalAlign=middle;resizable=1;points=[];fontStyle=1;fontSize=13;movable=1;rotatable=1;deletable=1;editable=1;locked=0;connectable=1;" connectable="0" vertex="1" parent="WNZ_oDKXE3f1ub5YSQuA-31">
          <mxGeometry x="-0.0688" y="1" relative="1" as="geometry">
            <mxPoint as="offset" />
          </mxGeometry>
        </mxCell>
        <mxCell id="WNZ_oDKXE3f1ub5YSQuA-33" value="" style="edgeStyle=orthogonalEdgeStyle;rounded=0;orthogonalLoop=1;jettySize=auto;html=1;fontStyle=1;fontSize=13;endArrow=classic;endFill=1;targetPerimeterSpacing=0;jumpSize=6;endSize=6;startSize=6;strokeWidth=2;movable=1;resizable=1;rotatable=1;deletable=1;editable=1;locked=0;connectable=1;" edge="1" parent="WNZ_oDKXE3f1ub5YSQuA-84" source="WNZ_oDKXE3f1ub5YSQuA-35" target="WNZ_oDKXE3f1ub5YSQuA-66">
          <mxGeometry relative="1" as="geometry" />
        </mxCell>
        <mxCell id="WNZ_oDKXE3f1ub5YSQuA-34" value="True" style="edgeLabel;html=1;align=center;verticalAlign=middle;resizable=1;points=[];fontStyle=1;fontSize=13;movable=1;rotatable=1;deletable=1;editable=1;locked=0;connectable=1;" connectable="0" vertex="1" parent="WNZ_oDKXE3f1ub5YSQuA-33">
          <mxGeometry x="-0.1917" y="3" relative="1" as="geometry">
            <mxPoint x="-1" as="offset" />
          </mxGeometry>
        </mxCell>
        <mxCell id="WNZ_oDKXE3f1ub5YSQuA-35" value="Case6:" style="rhombus;whiteSpace=wrap;html=1;fontStyle=1;fontSize=13;fillColor=#ffff88;strokeColor=#36393d;movable=1;resizable=1;rotatable=1;deletable=1;editable=1;locked=0;connectable=1;" vertex="1" parent="WNZ_oDKXE3f1ub5YSQuA-84">
          <mxGeometry x="457.6759061833691" y="748.2423735896364" width="69.08315565031984" height="39.04722106142916" as="geometry" />
        </mxCell>
        <mxCell id="WNZ_oDKXE3f1ub5YSQuA-36" value="" style="edgeStyle=orthogonalEdgeStyle;rounded=0;orthogonalLoop=1;jettySize=auto;html=1;fontStyle=1;fontSize=13;endArrow=classic;endFill=1;targetPerimeterSpacing=0;jumpSize=6;endSize=6;startSize=6;strokeWidth=2;movable=1;resizable=1;rotatable=1;deletable=1;editable=1;locked=0;connectable=1;" edge="1" parent="WNZ_oDKXE3f1ub5YSQuA-84" source="WNZ_oDKXE3f1ub5YSQuA-40" target="WNZ_oDKXE3f1ub5YSQuA-45">
          <mxGeometry relative="1" as="geometry" />
        </mxCell>
        <mxCell id="WNZ_oDKXE3f1ub5YSQuA-37" value="False" style="edgeLabel;html=1;align=center;verticalAlign=middle;resizable=1;points=[];fontStyle=1;fontSize=13;movable=1;rotatable=1;deletable=1;editable=1;locked=0;connectable=1;" connectable="0" vertex="1" parent="WNZ_oDKXE3f1ub5YSQuA-36">
          <mxGeometry x="-0.0688" y="1" relative="1" as="geometry">
            <mxPoint as="offset" />
          </mxGeometry>
        </mxCell>
        <mxCell id="WNZ_oDKXE3f1ub5YSQuA-38" value="" style="edgeStyle=orthogonalEdgeStyle;rounded=0;orthogonalLoop=1;jettySize=auto;html=1;fontStyle=1;fontSize=13;endArrow=classic;endFill=1;targetPerimeterSpacing=0;jumpSize=6;endSize=6;startSize=6;strokeWidth=2;movable=1;resizable=1;rotatable=1;deletable=1;editable=1;locked=0;connectable=1;" edge="1" parent="WNZ_oDKXE3f1ub5YSQuA-84" source="WNZ_oDKXE3f1ub5YSQuA-40" target="WNZ_oDKXE3f1ub5YSQuA-68">
          <mxGeometry relative="1" as="geometry" />
        </mxCell>
        <mxCell id="WNZ_oDKXE3f1ub5YSQuA-39" value="True" style="edgeLabel;html=1;align=center;verticalAlign=middle;resizable=1;points=[];fontStyle=1;fontSize=13;movable=1;rotatable=1;deletable=1;editable=1;locked=0;connectable=1;" connectable="0" vertex="1" parent="WNZ_oDKXE3f1ub5YSQuA-38">
          <mxGeometry x="-0.3167" y="-2" relative="1" as="geometry">
            <mxPoint x="-1" as="offset" />
          </mxGeometry>
        </mxCell>
        <mxCell id="WNZ_oDKXE3f1ub5YSQuA-40" value="Case7:" style="rhombus;whiteSpace=wrap;html=1;fontStyle=1;fontSize=13;fillColor=#ffff88;strokeColor=#36393d;movable=1;resizable=1;rotatable=1;deletable=1;editable=1;locked=0;connectable=1;" vertex="1" parent="WNZ_oDKXE3f1ub5YSQuA-84">
          <mxGeometry x="457.6759061833691" y="826.3368157124947" width="69.08315565031984" height="39.04722106142916" as="geometry" />
        </mxCell>
        <mxCell id="WNZ_oDKXE3f1ub5YSQuA-41" value="" style="edgeStyle=orthogonalEdgeStyle;rounded=0;orthogonalLoop=1;jettySize=auto;html=1;fontStyle=1;fontSize=13;endArrow=classic;endFill=1;targetPerimeterSpacing=0;jumpSize=6;endSize=6;startSize=6;strokeWidth=2;movable=1;resizable=1;rotatable=1;deletable=1;editable=1;locked=0;connectable=1;" edge="1" parent="WNZ_oDKXE3f1ub5YSQuA-84" source="WNZ_oDKXE3f1ub5YSQuA-45" target="WNZ_oDKXE3f1ub5YSQuA-50">
          <mxGeometry relative="1" as="geometry" />
        </mxCell>
        <mxCell id="WNZ_oDKXE3f1ub5YSQuA-42" value="False" style="edgeLabel;html=1;align=center;verticalAlign=middle;resizable=1;points=[];fontStyle=1;fontSize=13;movable=1;rotatable=1;deletable=1;editable=1;locked=0;connectable=1;" connectable="0" vertex="1" parent="WNZ_oDKXE3f1ub5YSQuA-41">
          <mxGeometry x="-0.1625" y="-1" relative="1" as="geometry">
            <mxPoint as="offset" />
          </mxGeometry>
        </mxCell>
        <mxCell id="WNZ_oDKXE3f1ub5YSQuA-43" value="" style="edgeStyle=orthogonalEdgeStyle;rounded=0;orthogonalLoop=1;jettySize=auto;html=1;fontStyle=1;fontSize=13;endArrow=classic;endFill=1;targetPerimeterSpacing=0;jumpSize=6;endSize=6;startSize=6;strokeWidth=2;movable=1;resizable=1;rotatable=1;deletable=1;editable=1;locked=0;connectable=1;" edge="1" parent="WNZ_oDKXE3f1ub5YSQuA-84" source="WNZ_oDKXE3f1ub5YSQuA-45" target="WNZ_oDKXE3f1ub5YSQuA-70">
          <mxGeometry relative="1" as="geometry" />
        </mxCell>
        <mxCell id="WNZ_oDKXE3f1ub5YSQuA-44" value="True" style="edgeLabel;html=1;align=center;verticalAlign=middle;resizable=1;points=[];fontStyle=1;fontSize=13;movable=1;rotatable=1;deletable=1;editable=1;locked=0;connectable=1;" connectable="0" vertex="1" parent="WNZ_oDKXE3f1ub5YSQuA-43">
          <mxGeometry x="-0.0857" y="-1" relative="1" as="geometry">
            <mxPoint x="-1" as="offset" />
          </mxGeometry>
        </mxCell>
        <mxCell id="WNZ_oDKXE3f1ub5YSQuA-45" value="Case8:" style="rhombus;whiteSpace=wrap;html=1;fontStyle=1;fontSize=13;fillColor=#ffff88;strokeColor=#36393d;movable=1;resizable=1;rotatable=1;deletable=1;editable=1;locked=0;connectable=1;" vertex="1" parent="WNZ_oDKXE3f1ub5YSQuA-84">
          <mxGeometry x="457.6759061833691" y="904.4312578353532" width="69.08315565031984" height="39.04722106142916" as="geometry" />
        </mxCell>
        <mxCell id="WNZ_oDKXE3f1ub5YSQuA-46" value="" style="edgeStyle=orthogonalEdgeStyle;rounded=0;orthogonalLoop=1;jettySize=auto;html=1;fontStyle=1;fontSize=13;endArrow=classic;endFill=1;targetPerimeterSpacing=0;jumpSize=6;endSize=6;startSize=6;strokeWidth=2;movable=1;resizable=1;rotatable=1;deletable=1;editable=1;locked=0;connectable=1;" edge="1" parent="WNZ_oDKXE3f1ub5YSQuA-84" source="WNZ_oDKXE3f1ub5YSQuA-50" target="WNZ_oDKXE3f1ub5YSQuA-73">
          <mxGeometry relative="1" as="geometry" />
        </mxCell>
        <mxCell id="WNZ_oDKXE3f1ub5YSQuA-47" value="False" style="edgeLabel;html=1;align=center;verticalAlign=middle;resizable=1;points=[];fontStyle=1;fontSize=13;movable=1;rotatable=1;deletable=1;editable=1;locked=0;connectable=1;" connectable="0" vertex="1" parent="WNZ_oDKXE3f1ub5YSQuA-46">
          <mxGeometry x="-0.1625" y="-1" relative="1" as="geometry">
            <mxPoint as="offset" />
          </mxGeometry>
        </mxCell>
        <mxCell id="WNZ_oDKXE3f1ub5YSQuA-48" value="" style="edgeStyle=orthogonalEdgeStyle;rounded=0;orthogonalLoop=1;jettySize=auto;html=1;fontStyle=1;fontSize=13;endArrow=classic;endFill=1;targetPerimeterSpacing=0;jumpSize=6;endSize=6;startSize=6;strokeWidth=2;movable=1;resizable=1;rotatable=1;deletable=1;editable=1;locked=0;connectable=1;" edge="1" parent="WNZ_oDKXE3f1ub5YSQuA-84" source="WNZ_oDKXE3f1ub5YSQuA-50" target="WNZ_oDKXE3f1ub5YSQuA-78">
          <mxGeometry relative="1" as="geometry" />
        </mxCell>
        <mxCell id="WNZ_oDKXE3f1ub5YSQuA-49" value="True" style="edgeLabel;html=1;align=center;verticalAlign=middle;resizable=1;points=[];fontStyle=1;fontSize=13;movable=1;rotatable=1;deletable=1;editable=1;locked=0;connectable=1;" connectable="0" vertex="1" parent="WNZ_oDKXE3f1ub5YSQuA-48">
          <mxGeometry x="-0.3596" relative="1" as="geometry">
            <mxPoint x="-1" as="offset" />
          </mxGeometry>
        </mxCell>
        <mxCell id="WNZ_oDKXE3f1ub5YSQuA-50" value="Defult" style="rhombus;whiteSpace=wrap;html=1;fontStyle=1;fontSize=13;fillColor=#ffff88;strokeColor=#36393d;movable=1;resizable=1;rotatable=1;deletable=1;editable=1;locked=0;connectable=1;" vertex="1" parent="WNZ_oDKXE3f1ub5YSQuA-84">
          <mxGeometry x="457.6759061833691" y="982.5256999582117" width="69.08315565031984" height="39.04722106142916" as="geometry" />
        </mxCell>
        <mxCell id="WNZ_oDKXE3f1ub5YSQuA-51" value="" style="edgeStyle=orthogonalEdgeStyle;rounded=0;orthogonalLoop=1;jettySize=auto;html=1;entryX=0.5;entryY=0;entryDx=0;entryDy=0;fontStyle=1;fontSize=13;endArrow=classic;endFill=1;targetPerimeterSpacing=0;jumpSize=6;endSize=6;startSize=6;exitX=0.5;exitY=1;exitDx=0;exitDy=0;strokeWidth=2;movable=1;resizable=1;rotatable=1;deletable=1;editable=1;locked=0;connectable=1;" edge="1" parent="WNZ_oDKXE3f1ub5YSQuA-84" source="WNZ_oDKXE3f1ub5YSQuA-79" target="WNZ_oDKXE3f1ub5YSQuA-10">
          <mxGeometry relative="1" as="geometry">
            <mxPoint x="492.217484008529" y="253.80693689928958" as="sourcePoint" />
          </mxGeometry>
        </mxCell>
        <mxCell id="WNZ_oDKXE3f1ub5YSQuA-52" value="" style="edgeStyle=orthogonalEdgeStyle;rounded=0;orthogonalLoop=1;jettySize=auto;html=1;fontStyle=1;fontSize=13;endArrow=classic;endFill=1;targetPerimeterSpacing=0;jumpSize=6;endSize=6;startSize=6;strokeWidth=2;movable=1;resizable=1;rotatable=1;deletable=1;editable=1;locked=0;connectable=1;" edge="1" parent="WNZ_oDKXE3f1ub5YSQuA-84" source="WNZ_oDKXE3f1ub5YSQuA-56">
          <mxGeometry relative="1" as="geometry">
            <mxPoint x="346.2793176972282" y="384.1270371918095" as="targetPoint" />
          </mxGeometry>
        </mxCell>
        <mxCell id="WNZ_oDKXE3f1ub5YSQuA-53" value="False" style="edgeLabel;html=1;align=center;verticalAlign=middle;resizable=1;points=[];fontStyle=1;fontSize=13;movable=1;rotatable=1;deletable=1;editable=1;locked=0;connectable=1;" connectable="0" vertex="1" parent="WNZ_oDKXE3f1ub5YSQuA-52">
          <mxGeometry x="-0.1444" y="1" relative="1" as="geometry">
            <mxPoint as="offset" />
          </mxGeometry>
        </mxCell>
        <mxCell id="WNZ_oDKXE3f1ub5YSQuA-54" value="" style="edgeStyle=orthogonalEdgeStyle;rounded=0;orthogonalLoop=1;jettySize=auto;html=1;fontStyle=1;fontSize=13;endArrow=classic;endFill=1;targetPerimeterSpacing=0;jumpSize=6;endSize=6;startSize=6;strokeWidth=2;movable=1;resizable=1;rotatable=1;deletable=1;editable=1;locked=0;connectable=1;" edge="1" parent="WNZ_oDKXE3f1ub5YSQuA-84" source="WNZ_oDKXE3f1ub5YSQuA-56" target="WNZ_oDKXE3f1ub5YSQuA-58">
          <mxGeometry relative="1" as="geometry" />
        </mxCell>
        <mxCell id="WNZ_oDKXE3f1ub5YSQuA-55" value="True" style="edgeLabel;html=1;align=center;verticalAlign=middle;resizable=1;points=[];fontStyle=1;fontSize=13;movable=1;rotatable=1;deletable=1;editable=1;locked=0;connectable=1;" connectable="0" vertex="1" parent="WNZ_oDKXE3f1ub5YSQuA-54">
          <mxGeometry x="-0.1" y="2" relative="1" as="geometry">
            <mxPoint x="-1" as="offset" />
          </mxGeometry>
        </mxCell>
        <mxCell id="WNZ_oDKXE3f1ub5YSQuA-56" value="IsEmpty" style="rhombus;whiteSpace=wrap;html=1;fontStyle=1;fontSize=13;fillColor=#ffff88;strokeColor=#36393d;movable=1;resizable=1;rotatable=1;deletable=1;editable=1;locked=0;connectable=1;" vertex="1" parent="WNZ_oDKXE3f1ub5YSQuA-84">
          <mxGeometry x="311.7377398720683" y="302.6159632260761" width="69.08315565031984" height="39.04722106142916" as="geometry" />
        </mxCell>
        <mxCell id="WNZ_oDKXE3f1ub5YSQuA-57" value="Print" style="shape=parallelogram;perimeter=parallelogramPerimeter;whiteSpace=wrap;html=1;fixedSize=1;fontStyle=1;fontSize=13;fillColor=#fff2cc;strokeColor=#d6b656;movable=1;resizable=1;rotatable=1;deletable=1;editable=1;locked=0;connectable=1;" vertex="1" parent="WNZ_oDKXE3f1ub5YSQuA-84">
          <mxGeometry x="291.87633262260135" y="385.59130798161306" width="103.62473347547977" height="29.285415796071877" as="geometry" />
        </mxCell>
        <mxCell id="WNZ_oDKXE3f1ub5YSQuA-58" value="enqueue" style="whiteSpace=wrap;html=1;fontStyle=1;fontSize=13;fillColor=#fff2cc;gradientColor=#ffd966;strokeColor=#d6b656;movable=1;resizable=1;rotatable=1;deletable=1;editable=1;locked=0;connectable=1;" vertex="1" parent="WNZ_oDKXE3f1ub5YSQuA-84">
          <mxGeometry x="136.43923240938167" y="307.4968658587547" width="101.03411513859277" height="29.285415796071877" as="geometry" />
        </mxCell>
        <mxCell id="WNZ_oDKXE3f1ub5YSQuA-59" value="Process_Registration()" style="whiteSpace=wrap;html=1;fontStyle=1;fontSize=10;fillColor=#fff2cc;gradientColor=#ffd966;strokeColor=#d6b656;movable=1;resizable=1;rotatable=1;deletable=1;editable=1;locked=0;connectable=1;" vertex="1" parent="WNZ_oDKXE3f1ub5YSQuA-84">
          <mxGeometry x="302.2388059701494" y="440.7455077308817" width="103.62473347547977" height="29.285415796071877" as="geometry" />
        </mxCell>
        <mxCell id="WNZ_oDKXE3f1ub5YSQuA-61" value="Display_Registration()" style="whiteSpace=wrap;html=1;fontStyle=1;fontSize=10;fillColor=#fff2cc;gradientColor=#ffd966;strokeColor=#d6b656;movable=1;resizable=1;rotatable=1;deletable=1;editable=1;locked=0;connectable=1;" vertex="1" parent="WNZ_oDKXE3f1ub5YSQuA-84">
          <mxGeometry x="302.2388059701494" y="518.8399498537401" width="103.62473347547977" height="29.285415796071877" as="geometry" />
        </mxCell>
        <mxCell id="WNZ_oDKXE3f1ub5YSQuA-62" value="priorityQueue.display()" style="whiteSpace=wrap;html=1;fontStyle=1;fontSize=10;fillColor=#fff2cc;gradientColor=#ffd966;strokeColor=#d6b656;movable=1;resizable=1;rotatable=1;deletable=1;editable=1;locked=0;connectable=1;" vertex="1" parent="WNZ_oDKXE3f1ub5YSQuA-84">
          <mxGeometry x="302.2388059701494" y="596.9343919765984" width="103.62473347547977" height="29.285415796071877" as="geometry" />
        </mxCell>
        <mxCell id="WNZ_oDKXE3f1ub5YSQuA-64" value="deleteStudent()" style="whiteSpace=wrap;html=1;fontStyle=1;fontSize=13;fillColor=#fff2cc;gradientColor=#ffd966;strokeColor=#d6b656;movable=1;resizable=1;rotatable=1;deletable=1;editable=1;locked=0;connectable=1;" vertex="1" parent="WNZ_oDKXE3f1ub5YSQuA-84">
          <mxGeometry x="302.2388059701494" y="675.0288340994567" width="103.62473347547977" height="29.285415796071877" as="geometry" />
        </mxCell>
        <mxCell id="WNZ_oDKXE3f1ub5YSQuA-66" value="&amp;nbsp;updateStudentGrade()" style="whiteSpace=wrap;html=1;fontStyle=1;fontSize=10;fillColor=#fff2cc;gradientColor=#ffd966;strokeColor=#d6b656;movable=1;resizable=1;rotatable=1;deletable=1;editable=1;locked=0;connectable=1;" vertex="1" parent="WNZ_oDKXE3f1ub5YSQuA-84">
          <mxGeometry x="302.2388059701494" y="753.1232762223151" width="103.62473347547977" height="29.285415796071877" as="geometry" />
        </mxCell>
        <mxCell id="WNZ_oDKXE3f1ub5YSQuA-68" value="searchStudent()" style="whiteSpace=wrap;html=1;fontStyle=1;fontSize=13;fillColor=#fff2cc;gradientColor=#ffd966;strokeColor=#d6b656;movable=1;resizable=1;rotatable=1;deletable=1;editable=1;locked=0;connectable=1;" vertex="1" parent="WNZ_oDKXE3f1ub5YSQuA-84">
          <mxGeometry x="302.2388059701494" y="831.2177183451734" width="103.62473347547977" height="29.285415796071877" as="geometry" />
        </mxCell>
        <mxCell id="WNZ_oDKXE3f1ub5YSQuA-70" value="Print" style="shape=parallelogram;perimeter=parallelogramPerimeter;whiteSpace=wrap;html=1;fixedSize=1;fontStyle=1;fontSize=13;fillColor=#fff2cc;strokeColor=#d6b656;movable=1;resizable=1;rotatable=1;deletable=1;editable=1;locked=0;connectable=1;" vertex="1" parent="WNZ_oDKXE3f1ub5YSQuA-84">
          <mxGeometry x="295.33049040511725" y="909.3121604680317" width="103.62473347547977" height="29.285415796071877" as="geometry" />
        </mxCell>
        <mxCell id="WNZ_oDKXE3f1ub5YSQuA-71" value="" style="edgeStyle=orthogonalEdgeStyle;rounded=0;orthogonalLoop=1;jettySize=auto;html=1;fontStyle=1;fontSize=13;endArrow=classic;endFill=1;targetPerimeterSpacing=0;jumpSize=6;endSize=6;startSize=6;strokeWidth=2;movable=1;resizable=1;rotatable=1;deletable=1;editable=1;locked=0;connectable=1;" edge="1" parent="WNZ_oDKXE3f1ub5YSQuA-84" source="WNZ_oDKXE3f1ub5YSQuA-73" target="WNZ_oDKXE3f1ub5YSQuA-76">
          <mxGeometry relative="1" as="geometry" />
        </mxCell>
        <mxCell id="WNZ_oDKXE3f1ub5YSQuA-72" value="False" style="edgeLabel;html=1;align=center;verticalAlign=middle;resizable=1;points=[];fontStyle=1;fontSize=13;movable=1;rotatable=1;deletable=1;editable=1;locked=0;connectable=1;" connectable="0" vertex="1" parent="WNZ_oDKXE3f1ub5YSQuA-71">
          <mxGeometry x="-0.0917" y="2" relative="1" as="geometry">
            <mxPoint as="offset" />
          </mxGeometry>
        </mxCell>
        <mxCell id="WNZ_oDKXE3f1ub5YSQuA-73" value="While" style="rhombus;whiteSpace=wrap;html=1;fontStyle=1;fontSize=13;fillColor=#ffff88;strokeColor=#36393d;movable=1;resizable=1;rotatable=1;deletable=1;editable=1;locked=0;connectable=1;" vertex="1" parent="WNZ_oDKXE3f1ub5YSQuA-84">
          <mxGeometry x="457.6759061833691" y="1060.6201420810694" width="69.08315565031984" height="39.04722106142916" as="geometry" />
        </mxCell>
        <mxCell id="WNZ_oDKXE3f1ub5YSQuA-74" value="" style="edgeStyle=orthogonalEdgeStyle;rounded=0;orthogonalLoop=1;jettySize=auto;html=1;entryX=1;entryY=0.5;entryDx=0;entryDy=0;endArrow=classic;endFill=1;targetPerimeterSpacing=0;jumpSize=6;endSize=6;startSize=6;strokeWidth=2;exitX=1;exitY=0.5;exitDx=0;exitDy=0;movable=1;resizable=1;rotatable=1;deletable=1;editable=1;locked=0;connectable=1;" edge="1" parent="WNZ_oDKXE3f1ub5YSQuA-84" source="WNZ_oDKXE3f1ub5YSQuA-73" target="WNZ_oDKXE3f1ub5YSQuA-79">
          <mxGeometry relative="1" as="geometry">
            <mxPoint x="602.7505330490405" y="1107.9648976180529" as="sourcePoint" />
            <mxPoint x="440.405117270789" y="234.28332636857502" as="targetPoint" />
            <Array as="points">
              <mxPoint x="636.4285714285714" y="1079.9507692307693" />
              <mxPoint x="636.4285714285714" y="234.49846153846156" />
            </Array>
          </mxGeometry>
        </mxCell>
        <mxCell id="WNZ_oDKXE3f1ub5YSQuA-75" value="True" style="edgeLabel;html=1;align=center;verticalAlign=middle;resizable=1;points=[];fontStyle=1;fontSize=13;movable=1;rotatable=1;deletable=1;editable=1;locked=0;connectable=1;" connectable="0" vertex="1" parent="WNZ_oDKXE3f1ub5YSQuA-74">
          <mxGeometry x="-0.9217" y="1" relative="1" as="geometry">
            <mxPoint x="-1" as="offset" />
          </mxGeometry>
        </mxCell>
        <mxCell id="WNZ_oDKXE3f1ub5YSQuA-76" value="End" style="ellipse;whiteSpace=wrap;html=1;fontStyle=1;fontSize=13;fillColor=#ffcd28;gradientColor=#ffa500;strokeColor=#d79b00;movable=1;resizable=1;rotatable=1;deletable=1;editable=1;locked=0;connectable=1;" vertex="1" parent="WNZ_oDKXE3f1ub5YSQuA-84">
          <mxGeometry x="440.405117270789" y="1128.9527789385706" width="103.62473347547977" height="39.04722106142916" as="geometry" />
        </mxCell>
        <mxCell id="WNZ_oDKXE3f1ub5YSQuA-78" value="Print" style="shape=parallelogram;perimeter=parallelogramPerimeter;whiteSpace=wrap;html=1;fixedSize=1;fontStyle=1;fontSize=13;fillColor=#fff2cc;strokeColor=#d6b656;movable=1;resizable=1;rotatable=1;deletable=1;editable=1;locked=0;connectable=1;" vertex="1" parent="WNZ_oDKXE3f1ub5YSQuA-84">
          <mxGeometry x="291.87633262260135" y="987.4066025908902" width="103.62473347547977" height="29.285415796071877" as="geometry" />
        </mxCell>
        <mxCell id="WNZ_oDKXE3f1ub5YSQuA-79" value="Swich" style="whiteSpace=wrap;html=1;fontStyle=1;fontSize=13;fillColor=#fff2cc;gradientColor=#ffd966;strokeColor=#d6b656;movable=1;resizable=1;rotatable=1;deletable=1;editable=1;locked=0;connectable=1;" vertex="1" parent="WNZ_oDKXE3f1ub5YSQuA-84">
          <mxGeometry x="440.405117270789" y="219.64061847053907" width="103.62473347547977" height="29.285415796071877" as="geometry" />
        </mxCell>
        <mxCell id="WNZ_oDKXE3f1ub5YSQuA-80" value="" style="edgeStyle=orthogonalEdgeStyle;rounded=0;orthogonalLoop=1;jettySize=auto;html=1;exitX=0;exitY=0.5;exitDx=0;exitDy=0;entryX=0;entryY=0.5;entryDx=0;entryDy=0;fontStyle=1;fontSize=13;flowAnimation=0;shadow=0;jumpStyle=arc;endArrow=classic;endFill=1;targetPerimeterSpacing=0;jumpSize=6;endSize=6;startSize=6;strokeWidth=2;movable=1;resizable=1;rotatable=1;deletable=1;editable=1;locked=0;connectable=1;" edge="1" parent="WNZ_oDKXE3f1ub5YSQuA-84" source="WNZ_oDKXE3f1ub5YSQuA-58" target="WNZ_oDKXE3f1ub5YSQuA-76">
          <mxGeometry relative="1" as="geometry">
            <mxPoint x="500.8528784648189" y="313.8420392812369" as="sourcePoint" />
            <mxPoint x="247.83582089552243" y="1153.9674049310488" as="targetPoint" />
            <Array as="points">
              <mxPoint y="322.13957375679064" />
              <mxPoint y="1148.4763894692853" />
            </Array>
          </mxGeometry>
        </mxCell>
        <mxCell id="WNZ_oDKXE3f1ub5YSQuA-82" value="" style="edgeStyle=orthogonalEdgeStyle;rounded=0;orthogonalLoop=1;jettySize=auto;html=1;fontStyle=1;fontSize=13;endArrow=classic;endFill=1;targetPerimeterSpacing=0;jumpSize=6;endSize=6;startSize=6;strokeWidth=2;exitX=0;exitY=0.5;exitDx=0;exitDy=0;movable=1;resizable=1;rotatable=1;deletable=1;editable=1;locked=0;connectable=1;" edge="1" parent="WNZ_oDKXE3f1ub5YSQuA-84" source="WNZ_oDKXE3f1ub5YSQuA-59">
          <mxGeometry relative="1" as="geometry">
            <mxPoint x="310.87420042643936" y="538.3635603844547" as="sourcePoint" />
            <mxPoint y="456.4184615384616" as="targetPoint" />
            <Array as="points">
              <mxPoint x="302.2388059701494" y="456.3643961554534" />
            </Array>
          </mxGeometry>
        </mxCell>
        <mxCell id="WNZ_oDKXE3f1ub5YSQuA-83" value="" style="edgeStyle=orthogonalEdgeStyle;rounded=0;orthogonalLoop=1;jettySize=auto;html=1;fontStyle=1;fontSize=13;endArrow=classic;endFill=1;targetPerimeterSpacing=0;jumpSize=6;endSize=6;startSize=6;strokeWidth=2;exitX=0;exitY=0.5;exitDx=0;exitDy=0;movable=1;resizable=1;rotatable=1;deletable=1;editable=1;locked=0;connectable=1;" edge="1" parent="WNZ_oDKXE3f1ub5YSQuA-84" source="WNZ_oDKXE3f1ub5YSQuA-57">
          <mxGeometry relative="1" as="geometry">
            <mxPoint x="310.87420042643936" y="460.2691182615963" as="sourcePoint" />
            <mxPoint y="399.81538461538463" as="targetPoint" />
            <Array as="points">
              <mxPoint x="230.5650319829425" y="400.234015879649" />
            </Array>
          </mxGeometry>
        </mxCell>
        <mxCell id="WNZ_oDKXE3f1ub5YSQuA-91" value="" style="edgeStyle=orthogonalEdgeStyle;rounded=0;orthogonalLoop=1;jettySize=auto;html=1;fontStyle=1;fontSize=13;endArrow=classic;endFill=1;targetPerimeterSpacing=0;jumpSize=6;endSize=6;startSize=6;strokeWidth=2;exitX=0;exitY=0.5;exitDx=0;exitDy=0;movable=1;resizable=1;rotatable=1;deletable=1;editable=1;locked=0;connectable=1;" edge="1" parent="WNZ_oDKXE3f1ub5YSQuA-84">
          <mxGeometry relative="1" as="geometry">
            <mxPoint x="302.51020408163265" y="533.0302769230769" as="sourcePoint" />
            <mxPoint y="533.9287384615385" as="targetPoint" />
            <Array as="points">
              <mxPoint x="302.2388059701494" y="533.8746730785302" />
            </Array>
          </mxGeometry>
        </mxCell>
        <mxCell id="WNZ_oDKXE3f1ub5YSQuA-92" value="" style="edgeStyle=orthogonalEdgeStyle;rounded=0;orthogonalLoop=1;jettySize=auto;html=1;fontStyle=1;fontSize=13;endArrow=classic;endFill=1;targetPerimeterSpacing=0;jumpSize=6;endSize=6;startSize=6;strokeWidth=2;exitX=0;exitY=0.5;exitDx=0;exitDy=0;movable=1;resizable=1;rotatable=1;deletable=1;editable=1;locked=0;connectable=1;" edge="1" parent="WNZ_oDKXE3f1ub5YSQuA-84">
          <mxGeometry relative="1" as="geometry">
            <mxPoint x="302.51020408163265" y="611.1245538461538" as="sourcePoint" />
            <mxPoint y="612.0230153846154" as="targetPoint" />
            <Array as="points">
              <mxPoint x="302.2388059701494" y="611.9689500016073" />
            </Array>
          </mxGeometry>
        </mxCell>
        <mxCell id="WNZ_oDKXE3f1ub5YSQuA-93" value="" style="edgeStyle=orthogonalEdgeStyle;rounded=0;orthogonalLoop=1;jettySize=auto;html=1;fontStyle=1;fontSize=13;endArrow=classic;endFill=1;targetPerimeterSpacing=0;jumpSize=6;endSize=6;startSize=6;strokeWidth=2;exitX=0;exitY=0.5;exitDx=0;exitDy=0;movable=1;resizable=1;rotatable=1;deletable=1;editable=1;locked=0;connectable=1;" edge="1" parent="WNZ_oDKXE3f1ub5YSQuA-84">
          <mxGeometry relative="1" as="geometry">
            <mxPoint x="302.51020408163265" y="689.218830769231" as="sourcePoint" />
            <mxPoint y="690.1172923076924" as="targetPoint" />
            <Array as="points">
              <mxPoint x="8.26530612244898" y="689.12" />
              <mxPoint x="8.26530612244898" y="690.0184615384616" />
            </Array>
          </mxGeometry>
        </mxCell>
        <mxCell id="WNZ_oDKXE3f1ub5YSQuA-96" value="" style="edgeStyle=orthogonalEdgeStyle;rounded=0;orthogonalLoop=1;jettySize=auto;html=1;fontStyle=1;fontSize=13;endArrow=classic;endFill=1;targetPerimeterSpacing=0;jumpSize=6;endSize=6;startSize=6;strokeWidth=2;exitX=0;exitY=0.5;exitDx=0;exitDy=0;movable=1;resizable=1;rotatable=1;deletable=1;editable=1;locked=0;connectable=1;" edge="1" parent="WNZ_oDKXE3f1ub5YSQuA-84">
          <mxGeometry relative="1" as="geometry">
            <mxPoint x="302.2374489795919" y="845.4073846153848" as="sourcePoint" />
            <mxPoint x="-0.27275510204081643" y="846.3058461538463" as="targetPoint" />
            <Array as="points">
              <mxPoint x="301.96605086810854" y="846.2517807708381" />
            </Array>
          </mxGeometry>
        </mxCell>
        <mxCell id="WNZ_oDKXE3f1ub5YSQuA-97" value="" style="edgeStyle=orthogonalEdgeStyle;rounded=0;orthogonalLoop=1;jettySize=auto;html=1;fontStyle=1;fontSize=13;endArrow=classic;endFill=1;targetPerimeterSpacing=0;jumpSize=6;endSize=6;startSize=6;strokeWidth=2;exitX=0;exitY=0.5;exitDx=0;exitDy=0;movable=1;resizable=1;rotatable=1;deletable=1;editable=1;locked=0;connectable=1;" edge="1" parent="WNZ_oDKXE3f1ub5YSQuA-84">
          <mxGeometry relative="1" as="geometry">
            <mxPoint x="302.2374489795919" y="923.5016615384615" as="sourcePoint" />
            <mxPoint x="-0.27275510204081493" y="924.400123076923" as="targetPoint" />
            <Array as="points">
              <mxPoint x="301.96605086810854" y="924.3460576939151" />
            </Array>
          </mxGeometry>
        </mxCell>
        <mxCell id="WNZ_oDKXE3f1ub5YSQuA-99" value="" style="edgeStyle=orthogonalEdgeStyle;rounded=0;orthogonalLoop=1;jettySize=auto;html=1;fontStyle=1;fontSize=13;endArrow=classic;endFill=1;targetPerimeterSpacing=0;jumpSize=6;endSize=6;startSize=6;strokeWidth=2;exitX=0;exitY=0.5;exitDx=0;exitDy=0;movable=1;resizable=1;rotatable=1;deletable=1;editable=1;locked=0;connectable=1;" edge="1" parent="WNZ_oDKXE3f1ub5YSQuA-84">
          <mxGeometry relative="1" as="geometry">
            <mxPoint x="303.4689795918368" y="767.5826461538462" as="sourcePoint" />
            <mxPoint y="767.5556923076923" as="targetPoint" />
            <Array as="points">
              <mxPoint x="303.19758148035345" y="768.4270423092994" />
            </Array>
          </mxGeometry>
        </mxCell>
        <mxCell id="WNZ_oDKXE3f1ub5YSQuA-100" value="" style="edgeStyle=orthogonalEdgeStyle;rounded=0;orthogonalLoop=1;jettySize=auto;html=1;fontStyle=1;fontSize=13;endArrow=classic;endFill=1;targetPerimeterSpacing=0;jumpSize=6;endSize=6;startSize=6;strokeWidth=2;exitX=0;exitY=0.5;exitDx=0;exitDy=0;movable=1;resizable=1;rotatable=1;deletable=1;editable=1;locked=0;connectable=1;" edge="1" parent="WNZ_oDKXE3f1ub5YSQuA-84">
          <mxGeometry relative="1" as="geometry">
            <mxPoint x="302.51020408163265" y="1001.5959384615385" as="sourcePoint" />
            <mxPoint x="1.468213306034901e-15" y="1002.4944" as="targetPoint" />
            <Array as="points">
              <mxPoint x="302.2388059701494" y="1002.440334616992" />
            </Array>
          </mxGeometry>
        </mxCell>
      </root>
    </mxGraphModel>
  </diagram>
</mxfile>
